<?xml version="1.0" encoding="UTF-8"?>
<svg id="_레이어_1" data-name="레이어 1" xmlns="http://www.w3.org/2000/svg" viewBox="0 0 566.93 566.93">
  <path d="M290.8,315.76v-48.74h168.29c.14,5.23,1.24,10.45,1.53,15.65,3.65,64.95-19.9,125.05-77.31,158.69-94.38,55.31-216.9,15.19-261.4-83.7-43.38-96.39,5.19-207.87,102.58-244.95,64.69-24.64,140.62-11.44,191.47,35.6l-35.11,36.61c-19.72-17.83-44.88-29.8-71.39-33.27-93.97-12.29-170.25,73.91-146.37,165.87,17.09,65.81,83.03,108.21,150.3,97.02,50.67-8.43,93.24-44.1,96.22-97.77l-118.81-1.01Z"/>
</svg>